<?xml version="1.0" standalone="no"?>
<!DOCTYPE svg PUBLIC "-//W3C//DTD SVG 20010904//EN"
 "http://www.w3.org/TR/2001/REC-SVG-20010904/DTD/svg10.dtd">
<svg version="1.0" xmlns="http://www.w3.org/2000/svg"
 width="1024.000000pt" height="1024.000000pt" viewBox="0 0 1024.000000 1024.000000"
 preserveAspectRatio="xMidYMid meet">

<g transform="translate(0.000000,1024.000000) scale(0.100000,-0.100000)"
fill="#000000" stroke="none">
<path d="M4470 7609 c-1234 -64 -2296 -256 -3038 -549 -216 -85 -221 -91 -228
-268 l-4 -117 -228 -5 c-211 -5 -229 -7 -262 -27 -44 -27 -75 -68 -89 -119 -7
-26 -11 -262 -11 -727 0 -743 -1 -727 53 -786 50 -54 85 -61 308 -61 l206 0 6
-217 c7 -292 33 -395 143 -559 100 -151 183 -210 484 -347 555 -252 1176 -464
1546 -527 293 -50 533 -4 737 144 104 74 171 154 527 621 189 248 355 463 369
478 66 72 165 86 235 34 19 -15 193 -235 387 -489 193 -255 384 -496 423 -536
266 -274 581 -334 1089 -207 496 124 1455 511 1642 662 123 100 222 256 266
418 18 67 23 116 26 303 l5 222 209 0 c187 0 214 2 247 19 45 23 87 66 101
104 8 19 11 260 11 735 0 666 -2 709 -19 747 -22 48 -54 79 -103 100 -30 12
-81 15 -253 15 l-215 0 0 115 c0 180 -6 188 -212 269 -751 295 -1620 461
-2868 547 -204 14 -1266 20 -1490 8z m580 -518 l0 -99 -77 -7 c-479 -43 -915
-342 -1134 -778 -72 -142 -119 -309 -144 -509 l-6 -48 -85 0 -84 0 0 -80 0
-80 84 0 83 0 12 -92 c33 -260 126 -491 281 -696 61 -82 229 -249 293 -292 20
-14 37 -27 37 -30 0 -3 -66 -90 -147 -195 -187 -242 -291 -347 -394 -398 -81
-40 -185 -67 -259 -67 -343 -1 -1571 452 -1776 655 -56 56 -99 134 -114 210
-5 28 -13 264 -16 525 -7 469 1 817 30 1324 l12 218 35 33 c111 101 858 282
1574 379 472 65 1008 107 1525 119 58 2 142 4 188 5 l82 2 0 -99z m860 78
c961 -52 1911 -210 2495 -413 106 -37 136 -52 163 -80 18 -20 32 -47 32 -60 0
-13 8 -163 17 -333 22 -408 26 -1605 4 -1698 -21 -92 -49 -144 -116 -211 -52
-52 -84 -72 -245 -152 -555 -274 -1362 -526 -1597 -498 -127 15 -251 76 -349
172 -49 48 -379 469 -379 483 0 4 27 29 60 56 314 251 514 608 551 983 l7 72
89 0 89 0 -3 78 -3 77 -87 3 -88 3 0 38 c0 68 -31 224 -65 328 -71 214 -177
386 -340 549 -164 165 -359 285 -580 359 -79 26 -280 65 -336 65 l-29 0 0 102
0 101 263 -7 c144 -3 345 -11 447 -17z m-870 -474 l0 -95 -41 0 c-38 0 -40 -1
-37 -27 3 -24 8 -28 41 -31 l37 -3 0 -134 0 -134 -37 -3 c-35 -3 -38 -6 -38
-33 0 -27 3 -30 38 -33 l37 -3 0 -129 0 -129 -37 -3 c-35 -3 -38 -6 -38 -33 0
-30 0 -30 63 -33 l63 -3 -3 -132 -3 -132 -132 -3 -133 -3 0 55 c0 49 -2 54
-24 58 -30 6 -46 -8 -46 -39 0 -23 -1 -23 -124 -23 l-125 0 -3 28 c-2 22 -8
28 -35 30 -28 3 -33 0 -34 -20 -1 -13 -1 -26 0 -30 0 -5 -57 -8 -128 -8 l-130
0 -3 28 c-2 22 -8 28 -35 30 -32 3 -33 2 -33 -32 l0 -36 -100 0 -100 0 0 33
c0 105 53 294 120 433 184 379 549 631 980 677 19 2 36 5 38 5 1 1 2 -41 2
-93z m335 68 c150 -29 326 -106 462 -202 262 -185 443 -470 498 -785 25 -148
32 -137 -87 -134 l-102 3 -1 30 c0 26 -4 30 -32 33 -24 2 -33 -1 -38 -17 -3
-12 -3 -25 0 -31 4 -7 -41 -10 -129 -10 l-136 0 0 30 c0 26 -3 30 -29 30 -30
0 -45 -19 -35 -45 5 -13 -12 -15 -124 -15 l-131 0 -3 28 c-2 22 -8 28 -35 30
l-33 3 0 -55 0 -56 -130 0 -130 0 0 135 0 134 58 3 c56 3 57 3 57 33 0 27 -3
30 -37 33 l-38 3 0 129 0 129 31 3 c63 6 67 68 4 68 l-35 0 0 134 0 135 38 3
c32 3 37 6 37 28 0 22 -5 25 -37 28 l-38 3 0 95 0 95 48 -6 c26 -4 83 -13 127
-22z m-285 -1363 l0 -129 -62 -3 c-63 -3 -63 -3 -63 -33 0 -28 3 -30 43 -33
l42 -3 0 -75 0 -74 -29 0 c-45 0 -151 -36 -203 -69 -79 -50 -126 -100 -250
-263 -67 -87 -124 -161 -129 -163 -11 -8 -147 105 -213 176 -162 175 -278 411
-316 642 -5 34 -10 74 -10 90 l0 27 100 0 100 0 0 -36 c0 -34 1 -35 33 -32 28
3 32 7 35 36 l3 32 130 0 c98 0 129 -3 128 -12 -6 -48 1 -59 34 -56 28 3 32 7
35 36 l3 32 124 0 124 0 3 -32 c3 -29 7 -33 36 -36 l32 -3 0 55 0 56 135 0
135 0 0 -130z m330 74 l0 -55 33 3 c28 3 32 7 35 36 l3 32 130 0 c98 0 129 -3
128 -12 -6 -45 1 -58 31 -58 28 0 30 3 30 35 l0 35 133 0 132 0 0 -32 c0 -30
3 -33 33 -36 31 -3 32 -2 32 32 l0 36 105 0 c58 0 105 -3 105 -7 0 -46 -38
-220 -66 -303 -73 -218 -200 -401 -387 -557 -48 -40 -89 -73 -92 -73 -2 0 -52
64 -111 143 -129 170 -189 235 -258 281 -58 39 -160 76 -206 76 l-30 0 0 74 0
75 38 3 c34 3 37 6 37 33 0 30 -1 30 -57 33 l-58 3 0 129 0 130 130 0 130 0 0
-56z"/>
<path d="M1343 2453 l-128 -388 -53 -28 -52 -28 0 -80 0 -79 235 0 235 0 0 80
0 80 -40 16 c-43 17 -44 23 -16 84 11 24 12 25 128 21 64 -1 121 0 127 3 6 4
-4 45 -23 104 -28 81 -36 96 -52 94 -62 -12 -97 -13 -105 -5 -5 5 10 65 38
148 l46 139 29 -75 c92 -237 178 -470 178 -482 0 -8 -18 -22 -41 -32 -41 -19
-41 -19 -35 -63 3 -25 6 -60 6 -78 l0 -34 263 0 c145 0 266 2 268 4 2 2 3 39
1 81 l-4 76 -53 25 -53 25 -111 312 c-60 172 -123 347 -138 390 l-27 77 -247
0 -247 0 -129 -387z"/>
<path d="M2462 2763 l3 -77 45 -26 45 -26 3 -293 2 -292 -50 -22 -50 -22 0
-77 0 -78 265 0 265 0 0 80 0 81 -45 19 -45 19 2 297 3 297 38 20 37 19 0 79
0 79 -260 0 -261 0 3 -77z"/>
<path d="M3140 2766 l0 -75 43 -23 42 -23 3 -303 2 -302 -45 -22 -45 -22 0
-73 0 -73 275 0 275 0 0 75 0 74 -50 22 -50 21 0 104 0 104 94 0 93 0 40 -87
c22 -49 61 -139 88 -200 l49 -113 188 0 188 0 0 78 0 77 -56 31 c-56 31 -57
32 -100 140 -24 60 -44 112 -44 116 0 4 29 31 65 59 l65 51 0 151 -1 152 -86
68 -86 67 -186 -2 -186 -3 1 -35 c0 -19 1 -59 2 -87 l2 -53 45 0 c25 0 61 -7
80 -14 l35 -15 0 -99 c0 -77 -3 -101 -14 -105 -8 -3 -73 -3 -145 0 l-131 6 0
103 0 104 35 14 35 15 0 85 0 86 -260 0 -260 0 0 -74z"/>
<path d="M4579 2765 l-87 -75 -1 -130 -2 -131 67 -74 c74 -83 86 -89 219 -100
91 -8 355 -52 391 -65 21 -8 24 -16 24 -64 0 -53 -1 -55 -32 -65 -18 -5 -48
-12 -65 -16 l-33 -7 0 -94 0 -94 151 0 151 0 89 76 89 75 0 142 0 143 -68 67
c-46 45 -75 67 -91 67 -19 0 -282 41 -488 75 -32 6 -33 7 -33 60 0 30 5 57 11
61 7 4 37 10 68 13 l56 6 3 103 3 102 -168 0 -168 -1 -86 -74z"/>
<path d="M5070 2737 l0 -107 41 0 c63 0 79 -13 79 -65 l0 -45 170 0 170 0 0
88 0 88 -67 66 -68 67 -162 7 -163 7 0 -106z"/>
<path d="M5793 2763 l-93 -76 0 -338 0 -338 92 -81 92 -80 153 0 154 0 -3 98
-3 97 -51 3 c-44 3 -52 7 -68 33 -13 21 -16 42 -12 72 3 23 5 131 5 239 l1
197 33 30 c24 23 42 31 70 31 l37 0 0 95 0 95 -157 0 -158 -1 -92 -76z"/>
<path d="M6260 2745 l0 -95 43 0 c34 0 49 -6 70 -28 l27 -28 -2 -254 -3 -254
-34 -23 c-21 -14 -49 -23 -72 -23 l-39 0 0 -95 0 -95 168 0 167 0 88 77 87 76
0 343 0 343 -89 75 -89 76 -161 0 -161 0 0 -95z"/>
<path d="M6920 2762 l0 -78 45 -22 45 -22 0 -295 0 -295 -45 -22 -45 -22 0
-78 0 -78 260 0 260 0 0 83 0 82 -40 17 -40 17 0 395 0 396 -220 0 -220 0 0
-78z"/>
<path d="M7420 2740 l0 -99 123 -3 122 -3 3 -42 3 -43 110 0 109 0 0 145 0
145 -235 0 -235 0 0 -100z"/>
<path d="M7970 2655 l0 -185 110 0 109 0 3 88 3 87 58 3 57 3 -2 -302 -3 -301
-55 -22 -55 -22 -3 -77 -3 -77 296 0 295 0 0 79 0 80 -55 16 -55 16 0 304 0
305 36 0 c65 0 74 -11 74 -95 l0 -75 105 0 105 0 0 180 0 180 -510 0 -510 0 0
-185z"/>
<path d="M7421 2330 l3 -110 182 0 183 0 3 106 c2 58 1 108 -1 110 -2 2 -87 4
-188 4 l-184 0 2 -110z"/>
<path d="M4498 2160 c-1 -5 -1 -49 2 -97 l5 -87 75 -63 75 -63 163 0 162 0 0
95 0 95 -27 6 c-87 19 -98 27 -93 63 1 7 -1 24 -4 37 l-6 24 -174 0 c-105 0
-176 -4 -178 -10z"/>
</g>
</svg>
